<svg width="50" height="38" viewBox="0 0 50 38" fill="none" xmlns="http://www.w3.org/2000/svg">
<path d="M45.8333 0.25H4.16667C1.875 0.25 0 2.125 0 4.41667V33.5833C0 35.875 1.875 37.75 4.16667 37.75H45.8333C48.125 37.75 49.9792 35.875 49.9792 33.5833L50 4.41667C50 2.125 48.125 0.25 45.8333 0.25ZM45.8333 33.5833H4.16667V4.41667H45.8333V33.5833ZM43.75 6.5H29.1667V16.9167H43.75V6.5ZM41.6667 10.6667L36.4583 14.3125L31.25 10.6667V8.58333L36.4583 12.2292L41.6667 8.58333V10.6667ZM18.75 19C22.1875 19 25 16.1875 25 12.75C25 9.3125 22.1875 6.5 18.75 6.5C15.3125 6.5 12.5 9.3125 12.5 12.75C12.5 16.1875 15.3125 19 18.75 19ZM18.75 10.6667C19.8958 10.6667 20.8333 11.6042 20.8333 12.75C20.8333 13.8958 19.8958 14.8333 18.75 14.8333C17.6042 14.8333 16.6667 13.8958 16.6667 12.75C16.6667 11.6042 17.6042 10.6667 18.75 10.6667ZM31.25 28.5625C31.25 23.3542 22.9792 21.1042 18.75 21.1042C14.5208 21.1042 6.25 23.3542 6.25 28.5625V31.5H31.25V28.5625ZM11.4167 27.3333C12.9583 26.2917 16.0417 25.25 18.75 25.25C21.4583 25.25 24.5208 26.2708 26.0833 27.3333H11.4167Z" fill="#111111"/>
</svg>
