<svg width="48" height="36" viewBox="0 0 48 36" fill="none" xmlns="http://www.w3.org/2000/svg">
<path d="M46.1807 16.9629C44.1094 7.59863 40.9922 2.60058 36.3682 1.23535C35.3962 0.950241 34.388 0.807803 33.3751 0.812498C32.0362 0.812498 30.8702 1.13867 29.6368 1.48437C28.1504 1.90136 26.462 2.375 24.0001 2.375C21.5381 2.375 19.8487 1.90234 18.3594 1.48535C17.1251 1.13867 15.96 0.812498 14.6251 0.812498C13.5776 0.808866 12.5348 0.95085 11.5264 1.23437C6.92682 2.59375 3.81158 7.58984 1.71002 16.957C-0.549747 27.0371 0.562558 33.4014 4.82916 34.8779C5.414 35.0841 6.02936 35.1904 6.64947 35.1924C9.57232 35.1924 11.9161 32.7578 13.5176 30.7646C15.3272 28.5088 17.4454 27.3643 24.0001 27.3643C29.8545 27.3643 32.2774 28.1582 34.3702 30.7646C35.6856 32.4033 36.9288 33.5498 38.169 34.2715C39.8184 35.2305 41.4669 35.4434 43.0674 34.8936C45.5889 34.0332 47.0342 31.7588 47.3643 28.1318C47.6153 25.3506 47.2286 21.6973 46.1807 16.9629ZM19.3126 16.4375H16.1876V19.5625C16.1876 19.9769 16.0229 20.3743 15.7299 20.6674C15.4369 20.9604 15.0395 21.125 14.6251 21.125C14.2107 21.125 13.8132 20.9604 13.5202 20.6674C13.2272 20.3743 13.0626 19.9769 13.0626 19.5625V16.4375H9.93756C9.52316 16.4375 9.12573 16.2729 8.8327 15.9798C8.53968 15.6868 8.37506 15.2894 8.37506 14.875C8.37506 14.4606 8.53968 14.0632 8.8327 13.7701C9.12573 13.4771 9.52316 13.3125 9.93756 13.3125H13.0626V10.1875C13.0626 9.7731 13.2272 9.37567 13.5202 9.08264C13.8132 8.78962 14.2107 8.625 14.6251 8.625C15.0395 8.625 15.4369 8.78962 15.7299 9.08264C16.0229 9.37567 16.1876 9.7731 16.1876 10.1875V13.3125H19.3126C19.727 13.3125 20.1244 13.4771 20.4174 13.7701C20.7104 14.0632 20.8751 14.4606 20.8751 14.875C20.8751 15.2894 20.7104 15.6868 20.4174 15.9798C20.1244 16.2729 19.727 16.4375 19.3126 16.4375ZM27.5157 16.8281C27.1294 16.8281 26.7518 16.7136 26.4306 16.499C26.1094 16.2843 25.8591 15.9793 25.7112 15.6224C25.5634 15.2655 25.5247 14.8728 25.6001 14.494C25.6755 14.1151 25.8615 13.7671 26.1346 13.4939C26.4078 13.2208 26.7558 13.0348 27.1346 12.9594C27.5135 12.884 27.9062 12.9227 28.2631 13.0705C28.62 13.2184 28.925 13.4687 29.1396 13.7899C29.3543 14.1111 29.4688 14.4887 29.4688 14.875C29.4688 15.393 29.263 15.8898 28.8968 16.2561C28.5305 16.6223 28.0337 16.8281 27.5157 16.8281ZM31.8126 21.125C31.4261 21.125 31.0483 21.0103 30.727 20.7955C30.4057 20.5807 30.1553 20.2753 30.0076 19.9182C29.86 19.561 29.8216 19.168 29.8973 18.789C29.9731 18.41 30.1596 18.062 30.4332 17.7891C30.7069 17.5161 31.0553 17.3305 31.4345 17.2557C31.8137 17.1809 32.2066 17.2202 32.5634 17.3688C32.9202 17.5174 33.2249 17.7685 33.4389 18.0903C33.6529 18.4122 33.7667 18.7903 33.7657 19.1768C33.7644 19.6939 33.558 20.1894 33.1919 20.5547C32.8258 20.9199 32.3297 21.125 31.8126 21.125ZM31.8126 12.5312C31.4263 12.5312 31.0486 12.4167 30.7275 12.2021C30.4063 11.9875 30.1559 11.6824 30.0081 11.3256C29.8603 10.9687 29.8216 10.576 29.897 10.1971C29.9723 9.81822 30.1583 9.4702 30.4315 9.19705C30.7046 8.92391 31.0527 8.73789 31.4315 8.66253C31.8104 8.58716 32.2031 8.62584 32.56 8.77367C32.9169 8.9215 33.2219 9.17183 33.4365 9.49302C33.6511 9.81421 33.7657 10.1918 33.7657 10.5781C33.7657 11.0961 33.5599 11.5929 33.1936 11.9592C32.8273 12.3255 32.3306 12.5312 31.8126 12.5312ZM36.1094 16.8281C35.7231 16.8281 35.3455 16.7136 35.0243 16.499C34.7031 16.2843 34.4528 15.9793 34.305 15.6224C34.1572 15.2655 34.1185 14.8728 34.1938 14.494C34.2692 14.1151 34.4552 13.7671 34.7284 13.4939C35.0015 13.2208 35.3495 13.0348 35.7284 12.9594C36.1073 12.884 36.5 12.9227 36.8569 13.0705C37.2137 13.2184 37.5188 13.4687 37.7334 13.7899C37.948 14.1111 38.0626 14.4887 38.0626 14.875C38.0626 15.393 37.8568 15.8898 37.4905 16.2561C37.1242 16.6223 36.6274 16.8281 36.1094 16.8281Z" fill="#E4A951"/>
</svg>
